<?xml version="1.0" encoding="UTF-8" standalone="no"?>
<svg width="109px" height="135px" viewBox="0 0 109 135" version="1.1" xmlns="http://www.w3.org/2000/svg" xmlns:xlink="http://www.w3.org/1999/xlink" xmlns:sketch="http://www.bohemiancoding.com/sketch/ns">
    <!-- Generator: Sketch 3.4.4 (17249) - http://www.bohemiancoding.com/sketch -->
    <title>file</title>
    <desc>Created with Sketch.</desc>
    <defs></defs>
    <g id="File-Icons" stroke="none" stroke-width="1" fill="none" fill-rule="evenodd" sketch:type="MSPage">
        <g id="152---iPad" sketch:type="MSArtboardGroup" transform="translate(-20.000000, -2.000000)" fill="#79B99C">
            <path d="M20,4.0046599 C20,2.89751681 20.8996312,2 22.0033445,2 L105.996655,2 C107.103072,2 108.628488,2.62491657 109.418681,3.41061879 L127.581319,21.4700375 C128.364835,22.2491007 129,23.778129 129,24.8755646 L129,134.436196 C129,135.537953 128.106589,136.431104 126.991464,136.431104 L22.0085357,136.431104 C20.8992521,136.431104 20,135.537114 20,134.426444 L20,4.0046599 Z M107,3 L128,24 L108.994561,24 C107.892996,24 107,23.0976562 107,22.0054385 L107,3 Z" id="file" sketch:type="MSShapeGroup"></path>
        </g>
    </g>
</svg>