<?xml version="1.0" encoding="UTF-8" standalone="no"?>
<svg width="510px" height="315px" viewBox="0 0 510 315" version="1.1" xmlns="http://www.w3.org/2000/svg" xmlns:xlink="http://www.w3.org/1999/xlink" xmlns:sketch="http://www.bohemiancoding.com/sketch/ns">
    <!-- Generator: Sketch 3.4.2 (15857) - http://www.bohemiancoding.com/sketch -->
    <title>Icon</title>
    <desc>Created with Sketch.</desc>
    <defs></defs>
    <g id="Logo" stroke="none" stroke-width="1" fill="none" fill-rule="evenodd" sketch:type="MSPage">
        <g sketch:type="MSLayerGroup" id="Icon">
            <g>
                <path d="M305.027218,63.9992137 C287.36328,26.1898055 249.058714,0 204.650949,0 C143.471955,0 93.876582,49.7071769 93.876582,111.024087 C93.876582,114.311389 94.0191296,117.565322 94.2983675,120.780016 C92.913999,120.712988 91.5214867,120.679108 90.1215187,120.679108 C40.3487783,120.679108 0,163.502858 0,216.328631 C0,269.154403 42.1259946,314.21699 91.898735,314.21699 C92.0842624,314.21699 92.2696342,314.216364 92.4548489,314.215113 L92.4591956,314.50497 L443.620963,314.50497 L443.620963,314.001289 C479.913269,314.001289 509.333995,276.657436 509.333995,233.187669 C509.333995,191.5484 482.338894,157.461112 448.167498,154.664139 C448.660812,150.641718 448.915248,146.548184 448.915248,142.400459 C448.915248,90.4143834 408.945314,46.9411813 359.639902,45.3003447 C339.261664,44.6221766 320.478132,51.6504836 305.452156,64.0328478 C305.310273,64.0213652 305.168626,64.0101533 305.027218,63.9992137 Z M61.3452653,218.498994 L123.065461,158.818682 L182.261654,218.350529 L178.594177,221.966314 L123.065461,165.898613 L64.8522459,221.969731 L61.3452653,218.498994 Z M141.326601,168.761683 L162.954573,168.761683 L162.954573,191.21583 L157.979058,191.21583 L157.979058,173.722485 L141.341384,173.722485 L141.326601,168.761683 Z M78.0654606,221.452767 L78.0654606,271.305076 L113.065461,271.305076 L113.065461,239.960921 L133.065461,239.960921 L133.065461,271.305076 L168.065461,271.305076 L168.065461,221.43384 L163.065461,221.43384 L163.065461,266.375548 L138.065461,266.375548 L138.065461,235.035585 L108.065461,235.035585 L108.065461,266.375548 L83.0654606,266.375548 L83.0654606,221.440636 L78.0654606,221.452767 Z M191.345265,218.498994 L253.065461,158.818682 L312.261654,218.350529 L308.594177,221.966314 L253.065461,165.898613 L194.852246,221.969731 L191.345265,218.498994 Z M271.326601,168.761683 L292.954573,168.761683 L292.954573,191.21583 L287.979058,191.21583 L287.979058,173.722485 L271.341384,173.722485 L271.326601,168.761683 Z M208.065461,221.452767 L208.065461,271.305076 L243.065461,271.305076 L243.065461,239.960921 L263.065461,239.960921 L263.065461,271.305076 L298.065461,271.305076 L298.065461,221.43384 L293.065461,221.43384 L293.065461,266.375548 L268.065461,266.375548 L268.065461,235.035585 L238.065461,235.035585 L238.065461,266.375548 L213.065461,266.375548 L213.065461,221.440636 L208.065461,221.452767 Z M321.345265,218.498994 L383.065461,158.818682 L442.261654,218.350529 L438.594177,221.966314 L383.065461,165.898613 L324.852246,221.969731 L321.345265,218.498994 Z M401.326601,168.761683 L422.954573,168.761683 L422.954573,191.21583 L417.979058,191.21583 L417.979058,173.722485 L401.341384,173.722485 L401.326601,168.761683 Z M338.065461,221.452767 L338.065461,271.305076 L373.065461,271.305076 L373.065461,239.960921 L393.065461,239.960921 L393.065461,271.305076 L428.065461,271.305076 L428.065461,221.43384 L423.065461,221.43384 L423.065461,266.375548 L398.065461,266.375548 L398.065461,235.035585 L368.065461,235.035585 L368.065461,266.375548 L343.065461,266.375548 L343.065461,221.440636 L338.065461,221.452767 Z" id="Cloud" fill="#FFFFFF" sketch:type="MSShapeGroup"></path>
                <g id="Houses" transform="translate(64.000000, 156.000000)">
                    <g id="House" transform="translate(0.000000, 0.017045)"></g>
                    <g id="House" transform="translate(130.000000, 0.017045)"></g>
                    <g id="House" transform="translate(260.000000, 0.017045)"></g>
                </g>
            </g>
        </g>
    </g>
</svg>